<?xml version="1.0" encoding="utf-8" ?>
<svg baseProfile="tiny" height="100%" version="1.2" width="100%" xmlns="http://www.w3.org/2000/svg" xmlns:ev="http://www.w3.org/2001/xml-events" xmlns:xlink="http://www.w3.org/1999/xlink"><defs /><polygon fill="white" points="426,495 425,496 423,496 422,497 422,499 421,500 421,501 422,502 422,504 423,505 423,506 424,507 424,508 426,510 426,511 427,512 427,513 428,514 428,515 430,517 430,518 431,519 431,520 433,522 433,523 434,524 434,525 435,526 435,527 436,528 436,529 438,531 438,532 439,533 439,534 440,535 440,536 442,538 442,539 443,540 443,541 444,542 444,543 445,544 445,545 447,547 447,548 448,549 448,550 449,551 449,552 451,554 451,555 452,556 452,557 453,558 453,559 454,560 454,561 456,563 456,564 457,565 457,566 459,568 459,569 460,570 460,571 461,572 461,573 463,575 463,576 464,577 464,578 465,579 465,580 466,581 466,582 468,584 468,585 469,586 469,587 470,588 470,589 472,591 472,592 473,593 473,594 474,595 474,596 475,597 475,598 477,600 477,601 478,602 478,603 479,604 479,605 481,607 481,608 482,609 482,610 483,611 483,612 484,613 484,614 486,616 486,617 487,618 487,619 488,620 488,621 490,623 490,624 491,625 491,626 492,627 492,628 494,630 494,631 495,632 495,633 496,634 496,635 498,637 498,638 499,639 499,640 500,641 500,642 502,644 502,645 503,646 503,647 504,648 504,649 506,651 506,652 507,653 507,654 508,655 508,656 510,658 510,659 511,660 511,661 512,662 512,663 513,664 513,665 514,666 514,667 515,668 515,669 517,671 517,672 518,673 518,674 519,675 519,676 521,678 521,679 522,680 522,681 523,682 523,683 525,685 525,686 526,687 526,688 527,689 527,690 529,692 529,693 530,694 530,695 531,696 531,697 533,699 533,700 534,701 534,702 536,704 536,705 539,708 540,708 541,709 543,709 544,710 657,710 658,709 660,709 661,708 662,708 664,706 665,706 667,704 667,703 669,701 669,700 670,699 670,698 671,697 671,696 673,694 673,693 674,692 674,691 675,690 675,689 677,687 677,686 678,685 678,684 680,682 680,681 681,680 681,679 682,678 682,677 684,675 684,674 685,673 685,672 686,671 686,670 688,668 688,667 689,666 689,665 691,663 691,662 692,661 692,660 693,659 693,658 695,656 695,655 696,654 696,653 697,652 697,651 699,649 699,648 700,647 700,646 701,645 701,644 703,642 703,641 704,640 704,639 705,638 705,637 707,635 707,634 708,633 708,632 710,630 710,629 711,628 711,627 712,626 712,625 714,623 714,622 715,621 715,620 717,618 717,617 718,616 718,615 719,614 719,613 721,611 721,610 722,609 722,608 724,606 724,605 725,604 725,603 727,601 727,600 728,599 728,598 729,597 729,596 731,594 731,593 732,592 732,591 734,589 734,588 735,587 735,586 737,584 737,583 738,582 738,581 739,580 739,579 741,577 741,576 742,575 742,574 744,572 744,571 745,570 745,569 746,568 746,567 748,565 748,564 749,563 749,562 750,561 750,560 752,558 752,557 753,556 753,555 754,554 754,553 756,551 756,550 757,549 757,548 759,546 759,545 760,544 760,543 761,542 761,541 763,539 763,538 764,537 764,536 766,534 766,533 767,532 767,531 768,530 768,529 770,527 770,526 771,525 771,524 773,522 773,521 774,520 774,519 776,517 776,516 777,515 777,514 779,512 779,511 780,510 780,509 782,507 782,506 783,505 783,499 782,498 782,497 781,497 780,496 777,496 776,495 725,495 724,496 719,496 718,497 717,497 716,498 715,498 713,500 712,500 711,501 711,502 709,504 709,505 707,507 707,508 706,509 706,510 705,511 705,512 703,514 703,515 702,516 702,517 700,519 700,520 699,521 699,522 697,524 697,525 696,526 696,527 695,528 695,529 693,531 693,532 692,533 692,534 690,536 690,537 689,538 689,539 688,540 688,541 686,543 686,544 685,545 685,546 683,548 683,549 682,550 682,551 681,552 681,553 679,555 679,556 678,557 678,558 676,560 676,561 675,562 675,563 674,564 674,565 672,567 672,568 671,569 671,570 669,572 669,573 668,574 668,575 667,576 667,577 665,579 665,580 664,581 664,582 663,583 663,584 661,586 661,587 660,588 660,589 658,591 658,592 657,593 657,594 655,596 655,597 654,598 654,599 653,600 653,601 651,603 651,604 650,605 650,606 648,608 648,609 647,610 647,611 646,612 646,613 644,615 644,616 643,617 643,618 642,619 642,620 640,622 640,623 639,624 639,625 637,627 637,628 636,629 636,630 635,631 635,632 633,634 633,635 632,636 632,637 631,638 631,639 629,641 629,642 628,643 628,644 627,645 627,646 625,648 625,649 624,650 624,651 617,658 615,658 614,659 610,659 609,660 593,660 592,659 591,659 590,658 589,658 586,655 586,654 584,652 584,651 583,650 583,649 582,648 582,647 580,645 580,644 579,643 579,642 578,641 578,640 577,639 577,638 575,636 575,635 574,634 574,633 573,632 573,631 572,630 572,629 570,627 570,626 569,625 569,624 568,623 568,622 567,621 567,620 566,619 566,618 565,617 565,616 563,614 563,613 562,612 562,611 561,610 561,609 560,608 560,607 558,605 558,604 557,603 557,602 556,601 556,600 555,599 555,598 553,596 553,595 552,594 552,593 551,592 551,591 550,590 550,589 549,588 549,587 547,585 547,584 546,583 546,582 545,581 545,580 544,579 544,578 542,576 542,575 541,574 541,573 540,572 540,571 538,569 538,568 537,567 537,566 536,565 536,564 534,562 534,561 533,560 533,559 532,558 532,557 530,555 530,554 529,553 529,552 528,551 528,550 527,549 527,548 525,546 525,545 524,544 524,543 523,542 523,541 521,539 521,538 520,537 520,536 519,535 519,534 518,533 518,532 517,531 517,530 515,528 515,527 514,526 514,525 513,524 513,523 512,522 512,521 511,520 511,519 509,517 509,516 508,515 508,514 507,513 507,512 506,511 506,510 505,509 505,508 503,506 503,505 502,504 502,503 496,497 494,497 493,496 490,496 489,495" /><polygon fill="white" points="388,381 387,382 385,382 384,383 383,383 377,389 377,390 376,391 376,392 374,394 374,395 373,396 373,397 371,399 371,400 370,401 370,402 369,403 369,404 368,405 368,406 366,408 366,409 365,410 365,411 364,412 364,413 362,415 362,416 361,417 361,418 360,419 360,420 358,422 358,423 357,424 357,425 355,427 355,428 354,429 354,430 352,432 352,433 350,435 350,436 349,437 349,438 347,440 347,441 346,442 346,443 344,445 344,446 343,447 343,448 341,450 341,451 340,452 340,453 338,455 338,456 337,457 337,458 336,459 336,460 334,462 334,463 333,464 333,465 331,467 331,468 330,469 330,470 329,471 329,472 327,474 327,475 326,476 326,477 324,479 324,480 322,482 322,483 321,484 321,485 320,486 320,487 318,489 318,490 317,491 317,492 315,494 315,495 314,496 314,497 312,499 312,500 311,501 311,502 309,504 309,505 308,506 308,508 307,509 307,511 306,512 306,517 307,518 307,520 308,521 308,523 309,524 309,525 310,526 310,527 312,529 312,530 313,531 313,532 314,533 314,534 316,536 316,537 317,538 317,539 318,540 318,541 320,543 320,544 321,545 321,546 322,547 322,548 324,550 324,551 325,552 325,553 327,555 327,556 328,557 328,558 330,560 330,561 331,562 331,563 333,565 333,566 334,567 334,568 335,569 335,570 337,572 337,573 338,574 338,575 340,577 340,578 341,579 341,580 342,581 342,582 344,584 344,585 345,586 345,587 347,589 347,590 348,591 348,592 350,594 350,595 351,596 351,597 353,599 353,600 354,601 354,602 356,604 356,605 357,606 357,607 358,608 358,609 360,611 360,612 361,613 361,614 362,615 362,616 363,617 363,618 365,620 365,621 366,622 366,623 367,624 367,625 369,627 369,628 370,629 370,630 372,632 372,633 373,634 373,635 375,637 375,638 376,639 376,640 377,641 377,642 379,644 379,645 380,646 380,647 381,648 381,649 383,651 383,652 384,653 384,654 385,655 385,656 387,658 387,659 388,660 388,661 389,662 389,663 391,665 391,666 392,667 392,668 393,669 393,670 395,672 395,673 396,674 396,675 398,677 398,678 399,679 399,680 400,681 400,682 402,684 402,685 403,686 403,687 404,688 404,689 406,691 406,692 407,693 407,694 408,695 408,696 410,698 410,699 411,700 411,701 412,702 412,703 414,705 414,706 415,707 415,708 416,709 416,710 418,712 418,713 419,714 419,715 420,716 420,717 422,719 422,720 424,722 425,722 426,723 429,723 430,724 431,723 434,723 439,718 439,717 440,716 440,715 442,713 442,712 443,711 443,710 445,708 445,707 446,706 446,705 448,703 448,702 449,701 449,700 451,698 451,697 453,695 453,694 454,693 454,692 456,690 456,689 457,688 457,687 458,686 458,685 460,683 460,682 462,680 462,679 463,678 463,677 465,675 465,674 466,673 466,672 467,671 467,670 468,669 468,667 469,666 469,659 468,658 468,655 467,654 467,653 465,651 465,650 464,649 464,648 463,647 463,646 461,644 461,643 460,642 460,641 459,640 459,639 457,637 457,636 456,635 456,634 454,632 454,631 453,630 453,629 452,628 452,627 450,625 450,624 449,623 449,622 448,621 448,620 446,618 446,617 445,616 445,615 444,614 444,613 442,611 442,610 441,609 441,608 439,606 439,605 438,604 438,603 437,602 437,601 435,599 435,598 434,597 434,596 433,595 433,594 431,592 431,591 430,590 430,589 429,588 429,587 428,586 428,585 426,583 426,582 425,581 425,580 424,579 424,578 422,576 422,575 421,574 421,573 420,572 420,571 418,569 418,568 417,567 417,566 416,565 416,564 414,562 414,561 413,560 413,559 412,558 412,557 410,555 410,554 409,553 409,552 408,551 408,550 406,548 406,547 405,546 405,545 404,544 404,543 402,541 402,540 401,539 401,538 400,537 400,536 398,534 398,533 397,532 397,531 396,530 396,529 394,527 394,526 393,525 393,524 391,522 391,521 390,520 390,519 389,518 389,517 387,515 387,514 386,513 386,512 384,510 384,509 383,508 383,507 382,506 382,505 380,503 380,502 379,501 379,500 378,499 378,490 379,489 379,488 380,487 380,486 382,484 382,483 383,482 383,481 385,479 385,478 386,477 386,476 388,474 388,473 389,472 389,471 391,469 391,468 392,467 392,466 394,464 394,463 398,459 399,459 400,458 401,458 402,457 567,457 568,456 571,456 572,455 574,455 580,449 580,448 581,447 581,446 583,444 583,443 584,442 584,441 586,439 586,438 587,437 587,436 589,434 589,433 590,432 590,431 592,429 592,428 593,427 593,426 595,424 595,423 596,422 596,421 598,419 598,418 599,417 599,416 601,414 601,413 602,412 602,411 604,409 604,408 605,407 605,406 607,404 607,403 609,401 609,400 610,399 610,398 612,396 612,395 613,394 613,393 614,392 614,391 615,390 615,384 612,381" /><polygon fill="white" points="426,276 425,277 424,277 423,278 423,284 424,285 424,286 425,287 425,288 426,289 426,290 427,291 427,292 429,294 429,295 430,296 430,297 431,298 431,299 433,301 433,302 434,303 434,304 435,305 435,306 437,308 437,309 439,311 439,312 440,313 440,314 441,315 441,316 442,317 442,318 443,319 443,320 445,322 445,323 446,324 446,325 447,326 447,327 448,328 448,329 450,331 450,332 451,333 451,334 452,335 452,336 454,338 454,339 456,341 456,342 457,342 459,344 461,344 462,345 629,345 630,346 632,346 633,347 634,347 637,350 637,351 639,353 639,354 641,356 641,357 642,358 642,359 643,360 643,361 645,363 645,364 646,365 646,366 647,367 647,368 649,370 649,371 650,372 650,373 652,375 652,376 653,377 653,378 654,379 654,381 655,382 655,386 654,387 654,389 653,390 653,391 652,392 652,393 650,395 650,396 649,397 649,398 647,400 647,401 646,402 646,403 645,404 645,405 643,407 643,408 642,409 642,410 640,412 640,413 639,414 639,415 637,417 637,418 636,419 636,420 635,421 635,422 633,424 633,425 632,426 632,427 630,429 630,430 629,431 629,432 627,434 627,435 626,436 626,437 625,438 625,439 623,441 623,442 622,443 622,444 620,446 620,447 619,448 619,449 618,450 618,451 616,453 616,454 615,455 615,456 613,458 613,459 612,460 612,461 610,463 610,464 609,465 609,466 607,468 607,469 606,470 606,471 604,473 604,474 603,475 603,476 601,478 601,479 600,480 600,481 599,482 599,483 597,485 597,486 596,487 596,488 594,490 594,491 593,492 593,493 591,495 591,496 590,497 590,498 589,499 589,500 587,502 587,503 586,504 586,505 584,507 584,508 583,509 583,510 581,512 581,513 580,514 580,515 578,517 578,518 577,519 577,520 576,521 576,522 574,524 574,525 573,526 573,527 571,529 571,530 570,531 570,532 569,533 569,534 567,536 567,538 566,539 566,548 567,549 567,551 568,552 568,553 569,554 569,555 570,556 570,557 571,558 571,559 573,561 573,562 574,563 574,564 575,565 575,566 576,567 576,568 578,570 578,571 579,572 579,573 580,574 580,575 581,576 581,577 583,579 583,580 584,581 584,582 585,583 585,584 587,586 587,587 588,588 588,589 589,590 589,591 590,592 590,593 592,595 592,596 593,597 593,598 594,599 594,600 596,602 596,603 597,604 597,605 599,607 605,607 607,605 607,604 608,603 608,602 609,601 609,600 611,598 611,597 612,596 612,595 613,594 613,593 615,591 615,590 616,589 616,588 618,586 618,585 619,584 619,583 620,582 620,581 622,579 622,578 623,577 623,576 625,574 625,573 626,572 626,571 627,570 627,569 629,567 629,566 630,565 630,564 632,562 632,561 633,560 633,559 635,557 635,556 636,555 636,554 637,553 637,552 639,550 639,549 640,548 640,547 642,545 642,544 643,543 643,542 645,540 645,539 646,538 646,537 647,536 647,535 649,533 649,532 650,531 650,530 651,529 651,528 653,526 653,525 654,524 654,523 655,522 655,521 657,519 657,518 658,517 658,516 660,514 660,513 661,512 661,511 662,510 662,509 664,507 664,506 665,505 665,504 667,502 667,501 668,500 668,499 669,498 669,497 670,496 670,495 672,493 672,492 673,491 673,490 675,488 675,487 676,486 676,485 677,484 677,483 679,481 679,480 680,479 680,478 681,477 681,476 683,474 683,473 684,472 684,471 685,470 685,469 687,467 687,466 688,465 688,464 690,462 690,461 691,460 691,459 692,458 692,457 694,455 694,454 695,453 695,452 696,451 696,450 698,448 698,447 699,446 699,445 700,444 700,443 702,441 702,440 703,439 703,438 705,436 705,435 706,434 706,433 708,431 708,430 709,429 709,428 710,427 710,426 712,424 712,423 713,422 713,421 715,419 715,418 716,417 716,416 717,415 717,414 719,412 719,411 720,410 720,409 721,408 721,407 723,405 723,403 724,402 724,400 725,399 725,390 724,389 724,388 723,387 723,386 722,385 722,384 721,383 721,382 719,380 719,379 718,378 718,377 716,375 716,374 715,373 715,372 713,370 713,369 712,368 712,367 711,366 711,365 709,363 709,362 708,361 708,360 706,358 706,357 705,356 705,355 703,353 703,352 702,351 702,350 701,349 701,348 700,347 700,346 698,344 698,343 697,342 697,341 695,339 695,338 694,337 694,336 692,334 692,333 691,332 691,331 690,330 690,329 688,327 688,326 686,324 686,323 685,322 685,321 683,319 683,318 682,317 682,316 680,314 680,313 679,312 679,311 678,310 678,309 677,308 677,307 675,305 675,304 674,303 674,302 672,300 672,299 671,298 671,297 670,296 670,295 668,293 668,292 667,291 667,290 665,288 665,287 664,286 664,285 662,283 662,282 657,277 655,277 654,276" /></svg>